<svg width="149" height="222" viewBox="0 0 149 222" fill="none" xmlns="http://www.w3.org/2000/svg">
<g clip-path="url(#clip0_142_10279)">
<path d="M79.17 82.39C90.6 89.2 96.86 99.69 98.45 112.5C99.13 117.97 97.45 123.92 95.98 129.43C93.9909 136.529 91.5936 143.507 88.8 150.33C88.35 151.47 85.14 152.84 84.35 152.33C75.52 146.63 64.93 144.11 57.86 135.05C49.86 124.79 46.46 108.47 51.66 96.55C53.82 91.62 55.08 86.29 57.2 81.33C58.07 79.33 60.14 77.74 61.66 75.97C61.66 76.56 61.66 77.15 61.66 77.74C61.6043 78.0389 61.5067 78.3284 61.37 78.6L60.67 79.75C59.82 83.64 57.15 87.55 60.73 91.42L60.78 91.53L61.5 92.81L64.5 95.59L65.65 96.41H65.75L67.64 97.19L67.88 97.33L69.62 98.4H69.71L70.61 99.22L76.91 100.94C76.32 94.59 79.43 88.41 75 84C76 82 74.36 81.19 76.56 81.18L79.17 82.39Z" fill="#EDEFEE"/>
<path d="M126.55 172.07C126.32 173.07 126.32 174.79 125.81 174.95C124.362 175.264 122.875 175.352 121.4 175.21H26.05C19.05 175.21 19.05 175.21 19.05 167.97C19.05 135.97 19.05 103.97 19.16 71.9701C19.16 70.3101 20.61 67.3901 21.68 67.2401C25.48 66.7301 24.45 70.1001 24.46 72.1401C24.53 102.99 24.62 133.84 24.39 164.69C24.39 169.44 25.82 170.45 30.26 170.42C60.38 170.25 90.51 170.3 120.64 170.42C122.56 170.42 124.47 171.42 126.39 171.98C93.31 172.06 60.23 172.147 27.15 172.24C22.96 172.24 22.89 169.77 22.9 166.66C22.98 136.827 23.0133 106.997 23 77.1701C23 74.8201 22.71 72.4701 22.55 70.1201C21.27 70.7701 20.83 71.4501 20.83 72.1201C20.77 80.8201 20.83 89.5201 20.83 98.2201C20.83 121.6 20.9 144.97 20.74 168.35C20.74 172.21 21.74 173.47 25.74 173.45C57.67 173.3 89.6 173.38 121.53 173.31C123.17 173.26 124.86 172.48 126.55 172.07Z" fill="#EDEFEE"/>
<path d="M63.65 53.0501C48.91 53.1601 34.1 54.6901 19.47 52.3001L19.11 49.8601C20.84 49.2901 22.57 48.2201 24.3 48.2101C57.1 48.1101 89.91 48.1601 122.72 48.1201C127.01 48.1201 128.59 50.1901 128.38 54.3301C128.23 57.4301 128.69 60.5501 128.5 63.6401C128.39 65.3301 127.5 66.9701 126.96 68.6401C126.71 63.9201 126.24 59.2001 126.29 54.4901C126.29 51.2601 124.99 49.8801 121.99 49.8701C113.64 49.8701 105.29 49.7901 96.99 49.9401C96.16 49.9401 95.35 51.3201 94.52 52.0601V51.9501C90.02 51.5201 85.52 51.0801 81.02 50.7801C80.7944 51.505 80.6305 52.2476 80.53 53.0001H77.4C77.25 52.2201 77.12 50.7601 76.94 50.7601C72.66 50.6334 68.3766 50.6334 64.09 50.7601C63.847 51.5018 63.6991 52.2712 63.65 53.0501Z" fill="#EDEFEE"/>
<path d="M94.47 52.06C95.3 51.32 96.11 49.96 96.94 49.94C105.29 49.79 113.64 49.83 121.94 49.87C124.94 49.87 126.27 51.26 126.24 54.49C126.19 59.2 126.66 63.92 126.91 68.64C126.91 69.99 126.96 71.34 126.98 72.64C126.98 83.5733 126.947 94.5066 126.88 105.44L126.97 107.49C126.97 110.79 126.97 114.1 126.97 117.4V119.4V134.28C126.97 135.97 126.89 137.65 126.84 139.34C126.84 142.29 126.84 145.24 126.84 148.2C126.68 150.59 126.53 152.99 126.37 155.39H123.9L124.12 155.22L123.89 155.38C123.95 153.73 124.05 152.09 124.05 150.45C124.05 140.08 124.13 129.72 124.05 119.35C123.99 112.35 123.69 105.45 123.5 98.5C123.44 97.5 123.38 96.43 123.33 95.4C123.37 90.1266 123.417 84.8533 123.47 79.58C123.47 78.87 123.42 78.17 123.39 77.46L123.48 65.64L123.42 63.52C123.42 62.24 123.42 60.95 123.49 59.67V57.66C123.2 55.98 123.33 53.14 122.55 52.86C121.01 52.31 118.96 53.18 117.12 53.46L109 53L94.47 52.06Z" fill="#EDEFEE"/>
<path d="M104.09 199.15C103.983 201.384 103.049 203.499 101.468 205.081C99.8873 206.664 97.774 207.601 95.54 207.71C94.3451 207.699 93.165 207.444 92.0713 206.963C90.9776 206.482 89.9931 205.783 89.1776 204.909C88.3622 204.036 87.7327 203.006 87.3274 201.882C86.9221 200.758 86.7495 199.563 86.82 198.37C86.96 193.37 90.88 189.37 95.55 189.53C100.39 189.65 104.19 193.93 104.09 199.15ZM91.16 198.52L95.57 203.26C96.57 202 98.57 200.56 98.34 199.52C97.99 197.58 96.34 195.87 95.34 194.06L91.16 198.52Z" fill="#EDEFEE"/>
<path d="M40.41 193.68C39.41 191.15 39.78 189.49 42.96 189.55C44.27 189.55 45.57 189.55 46.87 189.55C54.58 189.55 53.5 193 44.5 196.5C44.051 196.714 51.0726 199.108 50.67 199.4C49.44 200.48 48.25 201.61 47.04 202.72L52.13 201.36C52.2864 201.312 52.44 201.255 52.59 201.19C52.66 203.19 52.73 205.28 52.79 207.33L50.5 207.38H48.84L41.67 206.27L40.41 193.68Z" fill="#EDEFEE"/>
<path d="M71.68 195.38L74.16 190.82L79.69 190.96L79.81 192.1C79.26 196.58 78.7 201.1 78.1 205.97H73.68L69.89 206.36C68.55 204.28 67.21 202.2 65.89 200.13L63.1 206.69L61.41 206.29C61.91 201.38 62.41 196.46 62.97 191.09H67.63C67.7756 191.302 67.8524 191.553 67.85 191.81C68.14 193.34 68.03 195.12 68.85 196.34C70.48 199 71.47 198 71.68 195.38Z" fill="#EDEFEE"/>
<path d="M120.23 206L118.51 203.78L116 200.47L114.83 201.14C115.28 202.14 115.74 203.14 116.2 204.14C115.92 205.14 115.63 206.24 115.34 207.29L111.23 207.15C110.82 206.49 110.03 205.81 110.07 205.15C110.29 200.42 110.69 195.7 111.07 189.84L116.23 192.12L119.77 196.7L121.03 195.82L120.24 190.23L125.16 189.96C125.16 191.36 125.16 192.76 125.16 194.16C125.02 198 124.87 201.85 124.72 205.69L120.23 206Z" fill="#EDEFEE"/>
<path d="M26.7 203.1C28.58 202.53 29.17 202.3 29.78 202.18C31.25 201.9 32.73 201.67 34.21 201.41C33.49 203.25 33.12 206.41 31.98 206.69C28.78 207.57 25.25 207.43 21.87 207.35C21.41 207.35 20.65 205.4 20.61 204.35C20.51 200.82 20.61 197.27 20.77 193.73C20.83 192.43 21.24 190.14 21.77 190.06C24.0007 189.872 26.2444 189.899 28.47 190.14C28.18 191.51 27.8 192.87 27.62 194.25C27.27 197 27 199.73 26.7 203.1Z" fill="#EDEFEE"/>
<path d="M63.59 21.0776C63.59 22.8676 63.15 27.7475 63.59 29.4075C64.88 34.2975 64.66 34.7175 59.59 34.3175C58.5738 34.1552 57.5711 33.9178 56.59 33.6075C57.05 31.3175 57.79 29.2875 57.72 27.2775C57.72 26.0775 58.32 22.3076 57.72 21.0776C57.12 19.8476 53.92 20.8975 54.19 19.7275C54.46 18.5575 56.19 17.4175 57.4 17.1175C59.27 16.6775 61.32 17.0275 63.3 16.9975C65.87 16.9975 68.86 16.9275 68.5 20.4175C68.33 21.9875 67.51 19.6376 66.17 21.0776H63.59Z" fill="#EDEFEE"/>
<path d="M86.6 24L81.81 22.17C82.04 25.02 81.45 27.92 82.58 29.73C85.58 34.53 82.43 34.15 79.43 34.2C78.3412 34.1462 77.2563 34.0327 76.18 33.86L77.18 24.35C75.94 24.05 74.62 24.13 74.18 23.55C73.18 22.28 72.01 20.55 72.18 19.22C72.52 16.84 79.56 15.65 84.42 17.01C88.16 18.06 87.28 20.75 86.6 24Z" fill="#EDEFEE"/>
<path d="M98.88 29.0001L105.22 27.2501C105.48 28.6501 106.22 30.1601 105.86 31.4101C105.322 32.6085 104.35 33.5588 103.14 34.0701C102.14 34.5201 100.88 34.2001 99.72 34.2101C93.09 34.2101 93.2 34.2101 93.72 27.9901C93.92 25.7401 93.4 23.4301 93.31 21.1401C93.31 19.8501 93.31 17.4601 93.52 17.4201C95.4275 17.1548 97.3652 17.1953 99.26 17.5401C99.52 17.5901 99.51 19.7401 99.46 20.9001C99.34 23.4901 99.1 26.0001 98.88 29.0001Z" fill="#EDEFEE"/>
<path d="M112.32 17.0001C114.97 17.0001 117.61 17.1301 120.25 17.0001C123.96 16.8001 124.98 18.5501 124.14 21.9001L118.08 21.3101L117.85 22.3901L121.11 25.2101L117.27 28.4601C118.446 28.4537 119.616 28.6085 120.75 28.9201C121.691 29.4851 122.547 30.1821 123.29 30.9901C122.443 31.7011 121.54 32.3431 120.59 32.9101C119.506 33.3904 118.39 33.7947 117.25 34.1201C113.14 34.5101 110.25 34.3901 111.98 28.5401C112.84 25.6801 111.6 22.1901 111.32 18.9801L112.32 17.0001Z" fill="#EDEFEE"/>
<path d="M47 33.8701L40 34.2901C40 28.8001 39.74 23.8901 40.23 19.0601C40.32 18.1901 43.43 17.3001 45.23 17.0601C45.94 16.9701 47.56 18.6801 47.57 19.5901C47.57 24.0501 47.22 28.5001 47 33.8701Z" fill="#EDEFEE"/>
<path d="M123.54 98.6299C123.73 105.63 124.03 112.53 124.09 119.48C124.19 129.85 124.09 140.21 124.09 150.58C124.09 152.22 123.99 153.86 123.93 155.51C123.34 154.27 122.28 153.05 122.24 151.79C122.07 146.12 122.18 140.44 122.19 134.79C122.19 131.08 122.09 127.37 122.24 123.68C122.62 115.3 123.1 107 123.54 98.6299Z" fill="#EDEFEE"/>
<path d="M79.17 82.39L76.56 81.27L71 77.19L82.61 75.81C82.8584 75.7633 83.1025 75.6965 83.34 75.61L84.55 75L83.37 74.68L82.26 73.77L80.4 72.77C83.23 73.09 86.35 72.77 88.8 73.9C91.25 75.03 91.02 77.54 88.32 78.79C85.37 80.15 82.24 81.2 79.17 82.39Z" fill="#EDEFEE"/>
<path d="M126.93 105.49C126.93 94.5499 126.963 83.6166 127.03 72.6899C127.397 73.3835 127.656 74.1286 127.8 74.8999C128.07 84.0899 128.32 93.2699 128.42 102.46C128.43 103.47 127.45 104.48 126.93 105.49Z" fill="#EDEFEE"/>
<path d="M27.68 29.9399L28.94 30.4199C30.17 30.1899 31.41 29.9699 32.69 29.7499L33 33.0699L32.78 32.9299L32.97 33.0999L21.19 32.6999C21.19 28.0999 21.19 23.4966 21.19 18.8899H25.19L27.68 29.9399Z" fill="#EDEFEE"/>
<path d="M80.1218 73.1571L81.9243 73.935L83 74.6429C83 74.8763 83 75.1096 82.9225 75.343C82.6923 75.4103 82.4557 75.4623 82.215 75.4986L66.7097 76.9844C65.7407 76.7977 64.7716 76.6188 63.8025 76.4477L62 77C62 76.541 62 76.0821 62 75.6231C67.5431 72.6903 73.8228 72.8537 80.1218 73.1571Z" fill="#EDEFEE"/>
<path d="M67.63 191.09H63C62.45 196.46 61.94 201.38 61.44 206.29C60.9562 205.518 60.6173 204.664 60.44 203.77C60.44 200.5 60.56 197.23 60.83 193.97C61.0702 192.432 61.4279 190.914 61.9 189.43L67.63 191.09Z" fill="#EDEFEE"/>
<path d="M27.68 29.9399L25.21 18.9399H21.21C22.45 17.0599 26.16 15.8199 27.92 17.2099C28.72 17.8399 28.69 19.8499 28.61 21.2099C28.44 24.0899 28 26.9999 27.68 29.9399Z" fill="#EDEFEE"/>
<path d="M40.41 193.68L41.67 206.27L48.84 207.38C46.15 207.52 43.39 208.01 40.84 207.56C40.2 207.46 39.84 204.29 39.84 202.56C39.77 199.58 40.17 196.63 40.41 193.68Z" fill="#EDEFEE"/>
<path d="M127 134.37V119.49C128.6 124.45 130.07 129.41 127 134.37Z" fill="#EDEFEE"/>
<path d="M123.51 79.71C123.457 84.9833 123.41 90.2566 123.37 95.53C123.41 90.2633 123.457 84.99 123.51 79.71Z" fill="#EDEFEE"/>
<path d="M63.65 53.0499C63.7017 52.2812 63.8495 51.5219 64.09 50.7899C68.37 50.6566 72.6534 50.6566 76.94 50.7899C77.12 50.7899 77.25 52.2499 77.4 53.0299L63.65 53.0499Z" fill="#EDEFEE"/>
<path d="M80.53 53C80.624 52.2481 80.7812 51.5055 81 50.78C85.51 51.08 90 51.52 94.5 51.95L80.53 53Z" fill="#EDEFEE"/>
<path d="M127 117.45C127 114.15 127 110.84 127 107.54C128.146 108.937 128.773 110.688 128.773 112.495C128.773 114.302 128.146 116.053 127 117.45Z" fill="#EDEFEE"/>
<path d="M126.9 148.29C126.9 145.29 126.9 142.38 126.9 139.43C129.31 142.38 129.33 145.33 126.9 148.29Z" fill="#EDEFEE"/>
<path d="M21.22 32.7L33 33.0999C29 34.9299 25.05 35.75 21.22 32.7Z" fill="#EDEFEE"/>
<path d="M33 33.0701L32.66 29.7501C31.38 29.9701 30.14 30.1901 28.91 30.4201L34 27.3301L33 33.0701Z" fill="#EDEFEE"/>
<path d="M117.16 53.46C119 53.18 121.05 52.31 122.59 52.86C123.37 53.14 123.24 55.98 123.53 57.66C122.38 54.77 121.05 52.18 117.16 53.46Z" fill="#EDEFEE"/>
<path d="M79.69 191L74.16 190.86C76.06 188.69 77.92 187.93 79.69 191Z" fill="#EDEFEE"/>
<path d="M123.53 59.8C123.53 61.08 123.53 62.3701 123.46 63.6501C123.48 62.3701 123.5 61.08 123.53 59.8Z" fill="#EDEFEE"/>
<path d="M62 74L65 74.7L72 81.6C76.49 86.08 74.78 91.68 75.37 98L69.07 96.28L68.17 95.46H68.08C68.08 95.12 68.08 94.78 68.08 94.46C68.39 93.56 68.7 92.67 69.02 91.77L73.73 94C70.41 88.13 67.91 83.5 65.18 79C64.61 78.06 63.18 77.65 62.18 77L62 74Z" fill="#EDEFEE"/>
<path d="M70.28 92.31C69.96 93.21 69.65 94.1 69.34 95H67.65L67.41 94.86L65.52 94.08H65.42L64.27 93.26L61.27 90.48L60.55 89.2L60.5 89.09C60.82 85.28 59.12 80.91 63.5 78.2L63.6 79.2L64.09 80.47C66.1367 84.3833 68.2 88.33 70.28 92.31Z" fill="#EDEFEE"/>
<path d="M126.55 172.07C124.86 172.48 123.17 173.26 121.48 173.26C89.55 173.33 57.62 173.26 25.69 173.4C21.69 173.4 20.69 172.16 20.69 168.3C20.85 144.92 20.77 121.55 20.78 98.1701C20.78 89.4701 20.78 80.7701 20.78 72.0701C20.78 71.4001 21.22 70.7201 22.5 70.0701C22.66 72.4201 22.95 74.7701 22.95 77.1201C22.95 106.953 22.9167 136.783 22.85 166.61C22.85 169.72 22.91 172.21 27.1 172.19C60.18 172.05 93.26 171.963 126.34 171.93L126.55 172.07Z" fill="#EDEFEE"/>
</g>
<defs>
<clipPath id="clip0_142_10279">
<rect width="149" height="222" fill="white"/>
</clipPath>
</defs>
</svg>
