<svg width="500" height="137" viewBox="0 0 500 137" fill="none" xmlns="http://www.w3.org/2000/svg">
<g clip-path="url(#clip0_141_10250)">
<path d="M28.715 7.46894C35.0649 2.45465 42.1763 -0.0290689 50.2484 1.73999C54.8973 2.79086 59.463 4.18094 63.9088 5.89904C64.7712 6.24319 65.5569 6.75479 66.2205 7.4043C66.8841 8.0538 67.4124 8.82835 67.775 9.68319C68.0561 10.5033 66.0879 12.7175 64.6938 13.315C58.8945 15.8105 52.9781 17.9193 46.6517 20.3444C49.3814 22.1721 52.5798 24.1051 55.5556 26.3428C73.5859 39.8627 81.658 57.8696 80.1584 80.2348C79.104 95.7228 73.9608 109.899 67.1892 123.735C65.2561 127.671 65.0218 132.428 64.0025 136.821H58.6368C53.9505 133.81 49.6509 129.792 44.578 128.035C37.4666 125.598 30.7653 123.067 25.3644 117.631C16.1676 108.364 7.02938 99.1321 3.667 85.9637C2.56572 81.6758 1.23014 77.4464 0 73.1937V54.1089C5.24861 42.2761 12.5006 31.2868 14.1759 17.9544C14.5157 15.2716 18.1475 12.9987 20.2563 10.5853C19.5183 12.3192 18.7567 14.0414 18.0421 15.7753C14.8437 23.4959 13.0747 31.1462 19.1082 38.4217C24.2162 45.1581 31.4213 49.5867 39.2474 51.5901L41.5905 52.1759L46.8626 52.9842C47.3312 51.3674 47.9404 49.7741 48.245 48.1339C48.3015 47.1099 48.2306 45.5673 48.0341 44.5607V41.9363C47.4249 32.2709 45.5035 23.1913 36.3185 17.7201L32.2766 14.8849L30.8824 13.7837L29.8749 12.8871L28.7736 11.628L28.8556 11.7569C30.2615 10.9368 31.6439 9.47231 33.0967 9.41374C39.3177 9.15599 45.5504 9.30829 51.8417 9.30829V7.46894H28.715Z" fill="#EDEFEE"/>
<path d="M31.6322 15.2303L33.9753 17.5735C34.5611 18.1592 35.6155 18.9676 35.721 19.0496C43.0198 24.6028 45.5855 32.2414 46.0307 41.0047C46.0307 41.3562 46.0307 41.9405 46.1127 42.7621V44.5194C46.1127 45.1052 46.1245 45.6793 46.1127 46.0073C46.1243 47.6654 45.8004 49.9067 46.0307 51.5488L41.5671 50.963L39.4348 49.8969C37.0917 48.3973 34.5846 46.9563 32.2297 45.3864C28.1878 42.6918 24.2045 39.9152 20.1978 37.1854C14.4688 27.5083 17.8546 18.9676 23.4898 10.673L25.6338 9.67712L27.3209 10.22L28.1175 11.7156C28.4221 12.4186 28.387 12.77 28.7033 13.473L30.4606 14.6445C30.8824 14.9609 31.1753 14.8554 31.6322 15.2303ZM37.0566 39.4466L38.3336 40.6181L37.9938 38.6616L27.3209 18.745L25.2238 19.9869L37.0566 39.4466Z" fill="#EDEFEE"/>
<path d="M399.246 86.6957H387.952C391.466 78.2253 393.481 69.8369 388.924 61.3431C396.938 58.5314 399.468 59.6326 401.964 66.8729C403.006 69.8487 404.096 72.8127 405.478 76.7726C406.732 73.2579 407.739 70.6336 408.595 67.9742C411.348 59.3866 412.707 58.6016 421.845 61.0619C418.33 68.6888 418.635 74.4295 423.11 86.5552H410.633C412.554 82.5484 416.128 78.8228 411.805 74.0311C410.834 76.9426 409.684 79.7911 408.36 82.5601C407.965 83.3135 407.422 83.9796 406.764 84.519C406.105 85.0583 405.346 85.4599 404.529 85.6999C403.522 85.8405 401.706 84.0949 401.108 82.8062C399.574 79.5258 398.531 76.0228 396.75 71.0905C396.27 75.2847 395.485 77.9207 395.836 80.463C396.106 82.3844 397.793 84.1417 399.246 86.6957Z" fill="#EDEFEE"/>
<path d="M472 60.7104C484.149 58.0861 484.231 70.575 492.057 75.1089C491.108 69.9189 490.288 65.3967 489.409 60.6401H497.727C497.177 69.4386 496.638 77.9441 496.075 87.0472C487.089 86.6723 486.89 76.8428 479.357 72.4026C480.529 77.9441 481.478 82.2086 482.427 86.6254H472.14C475.995 77.8855 476.264 69.38 472 60.7104Z" fill="#EDEFEE"/>
<path d="M460.553 73.8788C460.366 82.3257 455.071 87.5509 446.87 87.3869C439.559 87.2346 433.982 81.0136 434.17 73.3281C434.404 65.1272 440.192 59.4685 448.006 59.7848C455.621 60.066 460.729 65.8067 460.553 73.8788ZM454.262 74.1834C452.634 71.1139 451.298 67.8101 449.189 65.1037C448.557 64.3188 444.386 64.7523 444.116 65.4786C442.743 68.7552 441.996 72.2601 441.914 75.8118C441.996 79.4203 443.824 83.0287 448.311 82.6655C452.798 82.3023 453.184 78.401 454.262 74.1834Z" fill="#EDEFEE"/>
<path d="M375.193 60.277C375.669 61.6988 375.964 63.1748 376.072 64.6703C375.807 66.0925 375.37 67.4773 374.772 68.7942C373.616 67.9929 372.41 67.2651 371.163 66.6151C369.007 65.631 366.77 64.8461 363.923 63.7096V70.739H371.257C372.077 74.8981 372.077 74.8981 364.005 75.9993V82.2086C367.52 82.6655 370.976 83.6028 372.686 78.9751C372.92 78.319 374.807 77.5341 375.146 77.8036C375.991 78.5118 376.528 79.5195 376.646 80.6153C376.798 84.7626 375.884 87.6447 370.425 87.0355C365.235 86.4731 359.94 86.9183 355.862 86.9183C356.331 80.627 356.952 74.9918 357.034 69.3449C357.034 67.4001 355.944 65.3381 355.007 63.487C353.449 60.4058 355.335 60.2184 357.526 60.2067C363.372 60.2652 369.195 60.277 375.193 60.277Z" fill="#EDEFEE"/>
<path d="M278.2 81.8103C284.456 85.489 286.236 78.2956 290.442 77.3818C292.375 85.5827 291.368 86.9417 283.729 86.9769C278.961 86.9769 274.193 86.9769 268.722 86.9769C273.302 77.9675 273.08 69.462 268.897 60.5933H289.775C290.249 61.8906 290.544 63.2464 290.653 64.6234C290.399 66.0606 289.97 67.4612 289.376 68.7942C288.211 68.0013 287.002 67.2738 285.756 66.6151C283.589 65.631 281.339 64.8343 278.516 63.7213V70.9616H286.377C286.377 75.4135 286.377 75.4135 278.457 75.8236C278.387 77.7918 278.293 79.8303 278.2 81.8103Z" fill="#EDEFEE"/>
<path d="M174.821 64.436C173.954 65.4882 173.026 66.4896 172.044 67.4352C171.034 68.2292 169.973 68.9571 168.869 69.6143C168.273 68.451 167.847 67.2082 167.604 65.9238C167.673 64.0853 167.893 62.2554 168.26 60.4526H191.328C191.094 63.4167 190.871 66.3105 190.637 69.2277L182.893 64.1899C184.392 71.2193 180.058 77.9558 185.552 83.9308C185.857 84.2588 184.779 86.7542 184.24 86.7894C180.632 87.0589 176.988 86.93 172.15 86.93C178.769 79.6077 175.032 72.1097 176.168 65.0803L174.821 64.436Z" fill="#EDEFEE"/>
<path d="M216.739 63.3464C216.739 70.0712 216.739 75.1441 216.739 80.2052C216.794 81.0525 217.047 81.8752 217.477 82.6069C218.098 83.6965 218.907 84.6806 219.621 85.7116C218.28 86.2456 216.886 86.6382 215.462 86.8832C212.744 87.0706 210.015 86.8832 207.742 86.8832C208.71 83.1993 209.492 79.469 210.085 75.7064C210.3 72.0862 210.327 68.4573 210.167 64.8343L208.855 64.272C207.953 65.2327 207.097 66.2402 206.137 67.1423C205.176 68.0444 204.215 68.7708 203.243 69.5674C202.539 68.5176 202.005 67.363 201.661 66.1465C201.6 64.2865 201.698 62.4248 201.954 60.5815H224.94C225.081 63.5105 225.21 66.4394 225.35 69.4386L223.921 70.0712L216.739 63.3464Z" fill="#EDEFEE"/>
<path d="M132.48 86.6957H111.826C115.434 77.9441 116.231 69.462 111.498 60.605H125.721C118.387 67.2477 122.1 74.9332 121.292 82.068C125.369 83.2396 128.005 82.6421 129.376 78.7759C129.692 77.8738 131.075 77.3466 131.965 76.6437C132.457 77.8153 133.347 78.9048 133.336 80.0295C133.194 82.2676 132.908 84.4942 132.48 86.6957Z" fill="#EDEFEE"/>
<path d="M342.413 86.6957H321.711C325.226 77.9441 325.496 69.4737 321.641 60.6167H335.7C327.768 67.0486 331.892 74.816 330.732 81.4471C337.692 86.0396 338.031 77.1006 343.432 76.1282C343.046 80.1232 342.741 83.3802 342.413 86.6957Z" fill="#EDEFEE"/>
<path d="M256.643 86.602H237.699C238.073 80.0178 238.46 73.8085 238.776 67.5875C238.912 66.5414 238.783 65.478 238.401 64.4945C236.152 60.1715 236.058 60.2066 241.155 60.2183H250.621C242.256 67.2477 246.239 74.8863 245.337 81.7985C248.969 83.0873 251.57 83.099 253.339 79.5726C253.936 78.401 255.459 77.6512 256.561 76.714C257.157 78.2173 257.551 79.7932 257.732 81.4002C257.555 83.1679 257.19 84.9116 256.643 86.602Z" fill="#EDEFEE"/>
<path d="M144.665 60.5112H156.755C153.241 69.3331 152.538 77.7801 157.177 86.5902H144.852C146.735 82.4955 147.695 78.0367 147.662 73.5299C147.63 69.023 146.606 64.5785 144.665 60.5112Z" fill="#EDEFEE"/>
<path d="M21.3342 10.6027H20.1626L20.5961 9.64197L21.3342 10.6027Z" fill="#EDEFEE"/>
<path d="M32.2063 14.8437C31.7494 14.4688 31.2808 14.1056 30.8121 13.7424L32.2063 14.8437Z" fill="#D7D9D8"/>
</g>
<defs>
<clipPath id="clip0_141_10250">
<rect width="500" height="136.757" fill="white"/>
</clipPath>
</defs>
</svg>
